<svg xmlns="http://www.w3.org/2000/svg" version="1.1" xmlns:xlink="http://www.w3.org/1999/xlink" width="512" height="512" x="0" y="0" viewBox="0 0 512 512" style="enable-background:new 0 0 512 512" xml:space="preserve" class=""><g><path d="M432 0H80C35.888 0 0 35.888 0 80v352c0 44.112 35.888 80 80 80h352c44.112 0 80-35.888 80-80V80c0-44.112-35.888-80-80-80zm40 432c0 22.056-17.944 40-40 40H80c-22.056 0-40-17.944-40-40V80c0-22.056 17.944-40 40-40h352c22.056 0 40 17.944 40 40v352z" fill="#ffffff" opacity="1" data-original="#000000" class=""></path></g></svg>